<svg width="32" height="32" viewBox="0 0 32 32" fill="none" xmlns="http://www.w3.org/2000/svg">
<path fill-rule="evenodd" clip-rule="evenodd" d="M20.6508 26.0932C20.4494 26.2655 20.1878 26.3508 19.9235 26.3303C19.6593 26.3098 19.414 26.1852 19.2415 25.9839L11.2415 16.6506C11.0862 16.4693 11.0009 16.2385 11.0009 15.9999C11.0009 15.7612 11.0862 15.5305 11.2415 15.3492L19.2415 6.01589C19.4168 5.82445 19.6597 5.70868 19.9188 5.69306C20.1779 5.67744 20.433 5.76319 20.63 5.93218C20.8271 6.10117 20.9507 6.34017 20.9747 6.59864C20.9987 6.8571 20.9213 7.11479 20.7588 7.31723L13.3175 15.9999L20.7588 24.6826C20.9314 24.8837 21.0171 25.145 20.9971 25.4093C20.9771 25.6736 20.8531 25.9191 20.6522 26.0919" fill="black"/>
</svg>
