<svg width="32" height="32" viewBox="0 0 32 32" fill="none" xmlns="http://www.w3.org/2000/svg">
<path fill-rule="evenodd" clip-rule="evenodd" d="M11.3492 5.90677C11.5506 5.7345 11.8122 5.64924 12.0765 5.66975C12.3407 5.69025 12.586 5.81483 12.7585 6.01611L20.7585 15.3494C20.9138 15.5307 20.9991 15.7615 20.9991 16.0001C20.9991 16.2388 20.9138 16.4695 20.7585 16.6508L12.7585 25.9841C12.5832 26.1756 12.3403 26.2913 12.0812 26.3069C11.8221 26.3226 11.567 26.2368 11.37 26.0678C11.1729 25.8988 11.0493 25.6598 11.0253 25.4014C11.0013 25.1429 11.0787 24.8852 11.2412 24.6828L18.6825 16.0001L11.2412 7.31744C11.0686 7.11634 10.9829 6.85495 11.0029 6.5907C11.0229 6.32645 11.1469 6.08094 11.3478 5.90811" fill="black"/>
</svg>
